<svg width="28" height="20" viewBox="0 0 28 20" fill="none" xmlns="http://www.w3.org/2000/svg">
<g clip-path="url(#clip0_69_254)">
<path d="M30 0H-2V19.9997H30V0Z" fill="#FF9933"/>
<path d="M30 6.66602H-2V13.3322H30V6.66602Z" fill="white"/>
<path d="M30 13.334H-2V20.0002H30V13.334Z" fill="#128807"/>
<path d="M14.0001 12.8059C15.5712 12.8059 16.8449 11.5491 16.8449 9.99861C16.8449 8.44817 15.5712 7.19128 14.0001 7.19128C12.4289 7.19128 11.1553 8.44817 11.1553 9.99861C11.1553 11.5491 12.4289 12.8059 14.0001 12.8059Z" fill="#000088"/>
<path d="M13.9998 12.4544C15.3741 12.4544 16.4883 11.3549 16.4883 9.9986C16.4883 8.64232 15.3741 7.54285 13.9998 7.54285C12.6254 7.54285 11.5112 8.64232 11.5112 9.9986C11.5112 11.3549 12.6254 12.4544 13.9998 12.4544Z" fill="white"/>
<path d="M14.0001 10.4908C14.2752 10.4908 14.4982 10.2707 14.4982 9.99926C14.4982 9.72777 14.2752 9.50769 14.0001 9.50769C13.725 9.50769 13.502 9.72777 13.502 9.99926C13.502 10.2707 13.725 10.4908 14.0001 10.4908Z" fill="#000088"/>
<path d="M16.5924 10.3377C16.6014 10.2702 16.5533 10.2084 16.4849 10.1995C16.4166 10.1906 16.3539 10.2381 16.3449 10.3055C16.3359 10.3729 16.384 10.4348 16.4523 10.4437C16.5207 10.4526 16.5834 10.4051 16.5924 10.3377Z" fill="#000088"/>
<path d="M13.9999 12.4569L14.0852 10.9832L13.9999 10.2811L13.9146 10.9832L13.9999 12.4569Z" fill="#000088"/>
<path d="M16.4156 10.9862C16.4419 10.9234 16.4117 10.8513 16.348 10.8253C16.2843 10.7993 16.2113 10.8291 16.185 10.892C16.1586 10.9548 16.1888 11.0268 16.2525 11.0529C16.3162 11.0789 16.3892 11.0491 16.4156 10.9862Z" fill="#000088"/>
<path d="M13.3599 12.3734L13.8292 10.9714L13.9359 10.2714L13.6692 10.9271L13.3599 12.3734Z" fill="#000088"/>
<path d="M16.0733 11.5697C16.1153 11.5157 16.105 11.4384 16.0503 11.397C15.9956 11.3556 15.9172 11.3658 15.8753 11.4197C15.8333 11.4737 15.8436 11.551 15.8983 11.5924C15.953 11.6338 16.0314 11.6237 16.0733 11.5697Z" fill="#000088"/>
<path d="M12.7549 12.1262L13.573 10.8915L13.8546 10.2421L13.4279 10.8073L12.7549 12.1262Z" fill="#000088"/>
<path d="M15.5908 12.0461C15.6455 12.0047 15.6558 11.9274 15.6138 11.8734C15.5719 11.8195 15.4935 11.8093 15.4389 11.8507C15.3842 11.8921 15.3739 11.9694 15.4158 12.0234C15.4578 12.0773 15.5361 12.0875 15.5908 12.0461Z" fill="#000088"/>
<path d="M12.2397 11.737L13.3597 10.7549L13.8024 10.1991L13.2349 10.6317L12.2397 11.737Z" fill="#000088"/>
<path d="M15.0004 12.3833C15.064 12.3573 15.0943 12.2852 15.0679 12.2224C15.0415 12.1596 14.9685 12.1297 14.9049 12.1558C14.8412 12.1818 14.8109 12.2538 14.8373 12.3167C14.8637 12.3795 14.9367 12.4093 15.0004 12.3833Z" fill="#000088"/>
<path d="M11.8447 11.2297L13.1802 10.5655L13.753 10.1444L13.0959 10.4223L11.8447 11.2297Z" fill="#000088"/>
<path d="M14.3419 12.5559C14.4102 12.547 14.4583 12.4851 14.4493 12.4177C14.4403 12.3503 14.3776 12.3028 14.3093 12.3117C14.2409 12.3206 14.1928 12.3824 14.2018 12.4499C14.2108 12.5173 14.2735 12.5648 14.3419 12.5559Z" fill="#000088"/>
<path d="M11.5957 10.6315L13.0602 10.3315L13.7248 10.0684L13.0154 10.1736L11.5957 10.6315Z" fill="#000088"/>
<path d="M13.7979 12.4528C13.8069 12.3853 13.7588 12.3235 13.6905 12.3146C13.6222 12.3057 13.5595 12.3532 13.5505 12.4206C13.5415 12.4881 13.5896 12.5499 13.6579 12.5588C13.7262 12.5677 13.7889 12.5202 13.7979 12.4528Z" fill="#000088"/>
<path d="M11.5112 9.99986L13.0046 10.0841L13.716 9.99986L13.0046 9.91565L11.5112 9.99986Z" fill="#000088"/>
<path d="M13.1636 12.3162C13.19 12.2533 13.1598 12.1813 13.0961 12.1553C13.0324 12.1292 12.9594 12.1591 12.933 12.2219C12.9066 12.2848 12.9369 12.3568 13.0006 12.3828C13.0642 12.4089 13.1372 12.379 13.1636 12.3162Z" fill="#000088"/>
<path d="M11.5957 9.36707L13.0165 9.83022L13.7258 9.93548L13.0613 9.67232L11.5957 9.36707Z" fill="#000088"/>
<path d="M12.5836 12.0228C12.6255 11.9689 12.6152 11.8915 12.5605 11.8501C12.5058 11.8087 12.4275 11.8189 12.3855 11.8729C12.3436 11.9268 12.3539 12.0041 12.4086 12.0456C12.4633 12.087 12.5416 12.0768 12.5836 12.0228Z" fill="#000088"/>
<path d="M11.8447 8.77148L13.0959 9.57884L13.7541 9.85673L13.1813 9.43568L11.8447 8.77148Z" fill="#000088"/>
<path d="M12.1006 11.593C12.1552 11.5516 12.1656 11.4743 12.1236 11.4203C12.0816 11.3663 12.0033 11.3562 11.9486 11.3976C11.8939 11.439 11.8836 11.5163 11.9256 11.5702C11.9675 11.6242 12.0459 11.6344 12.1006 11.593Z" fill="#000088"/>
<path d="M12.2397 8.2616L13.2349 9.36684L13.7981 9.80368L13.3597 9.24369L12.2397 8.2616Z" fill="#000088"/>
<path d="M11.7489 11.0534C11.8126 11.0273 11.8428 10.9553 11.8164 10.8924C11.7901 10.8296 11.7171 10.7998 11.6534 10.8258C11.5897 10.8518 11.5595 10.9239 11.5858 10.9867C11.6122 11.0495 11.6852 11.0794 11.7489 11.0534Z" fill="#000088"/>
<path d="M12.7549 7.87292L13.4279 9.1908L13.8546 9.75605L13.573 9.10764L12.7549 7.87292Z" fill="#000088"/>
<path d="M11.5494 10.4429C11.6177 10.434 11.6658 10.3721 11.6568 10.3047C11.6478 10.2372 11.5851 10.1898 11.5168 10.1986C11.4485 10.2075 11.4004 10.2694 11.4094 10.3368C11.4184 10.4043 11.481 10.4517 11.5494 10.4429Z" fill="#000088"/>
<path d="M13.3599 7.62683L13.6639 9.07207L13.9305 9.72785L13.8239 9.02786L13.3599 7.62683Z" fill="#000088"/>
<path d="M11.6344 9.71075C11.6434 9.64342 11.5953 9.58166 11.5271 9.57282C11.4589 9.56398 11.3963 9.6114 11.3873 9.67873C11.3784 9.74607 11.4264 9.80783 11.4946 9.81667C11.5629 9.82551 11.6255 9.77809 11.6344 9.71075Z" fill="#000088"/>
<path d="M13.9999 7.54285L13.9146 9.01651L13.9999 9.7186L14.0852 9.01651L13.9999 7.54285Z" fill="#000088"/>
<path d="M11.8164 9.10926C11.8428 9.04642 11.8126 8.97438 11.7489 8.94835C11.6852 8.92232 11.6122 8.95216 11.5858 9.015C11.5595 9.07784 11.5897 9.14988 11.6534 9.17591C11.7171 9.20194 11.7901 9.1721 11.8164 9.10926Z" fill="#000088"/>
<path d="M14.6395 7.62683L14.1701 9.02892L14.0635 9.7289L14.3301 9.07312L14.6395 7.62683Z" fill="#000088"/>
<path d="M12.126 8.57946C12.168 8.5255 12.1577 8.44819 12.103 8.40678C12.0483 8.36538 11.97 8.37555 11.928 8.42952C11.8861 8.48348 11.8964 8.56079 11.9511 8.60219C12.0057 8.6436 12.0841 8.63342 12.126 8.57946Z" fill="#000088"/>
<path d="M15.2448 7.87292L14.4266 9.10764L14.145 9.75711L14.5717 9.19185L15.2448 7.87292Z" fill="#000088"/>
<path d="M12.5615 8.14766C12.6162 8.10626 12.6265 8.02894 12.5845 7.97498C12.5426 7.92102 12.4642 7.91084 12.4096 7.95225C12.3549 7.99366 12.3446 8.07097 12.3865 8.12493C12.4285 8.17889 12.5068 8.18907 12.5615 8.14766Z" fill="#000088"/>
<path d="M15.7604 8.2616L14.6404 9.24369L14.1978 9.79947L14.7652 9.36684L15.7604 8.2616Z" fill="#000088"/>
<path d="M13.0951 7.84437C13.1588 7.81834 13.189 7.7463 13.1626 7.68346C13.1363 7.62062 13.0633 7.59078 12.9996 7.61681C12.9359 7.64284 12.9057 7.71488 12.932 7.77772C12.9584 7.84056 13.0314 7.8704 13.0951 7.84437Z" fill="#000088"/>
<path d="M16.1563 8.77148L14.8208 9.43568L14.248 9.85673L14.9051 9.57884L16.1563 8.77148Z" fill="#000088"/>
<path d="M13.6905 7.68895C13.7588 7.68007 13.8069 7.6182 13.7979 7.55077C13.7889 7.48333 13.7262 7.43586 13.6579 7.44474C13.5896 7.45362 13.5415 7.51548 13.5505 7.58292C13.5595 7.65035 13.6222 7.69782 13.6905 7.68895Z" fill="#000088"/>
<path d="M16.4045 9.36707L14.9399 9.66706L14.2754 9.93021L14.9847 9.82495L16.4045 9.36707Z" fill="#000088"/>
<path d="M14.4483 7.57985C14.4573 7.51241 14.4092 7.45055 14.3409 7.44167C14.2725 7.43279 14.2099 7.48026 14.2009 7.5477C14.1919 7.61513 14.24 7.677 14.3083 7.68587C14.3766 7.69475 14.4393 7.64728 14.4483 7.57985Z" fill="#000088"/>
<path d="M16.488 9.99986L14.9947 9.91565L14.2832 9.99986L14.9947 10.0841L16.488 9.99986Z" fill="#000088"/>
<path d="M15.0664 7.77723C15.0928 7.71439 15.0626 7.64235 14.9989 7.61632C14.9352 7.59029 14.8622 7.62013 14.8358 7.68297C14.8095 7.74581 14.8397 7.81785 14.9034 7.84388C14.9671 7.86991 15.0401 7.84007 15.0664 7.77723Z" fill="#000088"/>
<path d="M16.4045 10.6308L14.9837 10.1676L14.2744 10.0624L14.9389 10.3255L16.4045 10.6308Z" fill="#000088"/>
<path d="M15.6138 8.12634C15.6558 8.07237 15.6455 7.99506 15.5908 7.95366C15.5361 7.91225 15.4578 7.92243 15.4158 7.97639C15.3739 8.03035 15.3842 8.10766 15.4389 8.14907C15.4935 8.19048 15.5719 8.1803 15.6138 8.12634Z" fill="#000088"/>
<path d="M16.1554 11.2297L14.9042 10.4223L14.2461 10.1444L14.8189 10.5655L16.1554 11.2297Z" fill="#000088"/>
<path d="M16.0513 8.60469C16.1059 8.56329 16.1162 8.48598 16.0743 8.43201C16.0323 8.37805 15.954 8.36787 15.8993 8.40928C15.8446 8.45069 15.8343 8.528 15.8763 8.58196C15.9182 8.63592 15.9966 8.6461 16.0513 8.60469Z" fill="#000088"/>
<path d="M15.7601 11.7373L14.7649 10.632L14.2017 10.1952L14.6443 10.751L15.7601 11.7373Z" fill="#000088"/>
<path d="M16.347 9.1725C16.4107 9.14647 16.441 9.07443 16.4146 9.01159C16.3882 8.94875 16.3152 8.91891 16.2515 8.94494C16.1879 8.97096 16.1576 9.04301 16.184 9.10585C16.2104 9.16869 16.2834 9.19853 16.347 9.1725Z" fill="#000088"/>
<path d="M15.2448 12.1271L14.5717 10.8093L14.145 10.244L14.4266 10.8935L15.2448 12.1271Z" fill="#000088"/>
<path d="M16.4839 9.80052C16.5523 9.79164 16.6004 9.72978 16.5914 9.66234C16.5824 9.5949 16.5197 9.54743 16.4514 9.55631C16.383 9.56519 16.3349 9.62705 16.3439 9.69449C16.3529 9.76193 16.4156 9.8094 16.4839 9.80052Z" fill="#000088"/>
<path d="M14.64 12.3724L14.336 10.9271L14.0693 10.2714L14.176 10.9714L14.64 12.3724Z" fill="#000088"/>
</g>
<defs>
<clipPath id="clip0_69_254">
<rect width="28" height="20" rx="2" fill="white"/>
</clipPath>
</defs>
</svg>
