<svg width="28" height="20" viewBox="0 0 28 20" fill="none" xmlns="http://www.w3.org/2000/svg">
<g clip-path="url(#clip0_69_1950)">
<path d="M26 0H2C-0.209139 0 -2 1.79086 -2 4V15.9997C-2 18.2088 -0.209139 19.9997 2 19.9997H26C28.2091 19.9997 30 18.2088 30 15.9997V4C30 1.79086 28.2091 0 26 0Z" fill="#239F40"/>
<path d="M30 6.66602H-2V13.3322H30V6.66602Z" fill="white"/>
<path d="M30 13.334H-2V20.0002H30V13.334Z" fill="#DA0000"/>
<path d="M12.7197 5.75189H14.4264H12.7197ZM12.8758 6.2643C12.799 6.2898 12.7197 6.23259 12.7197 6.15164C12.7197 6.08608 12.7729 6.03294 12.8384 6.03294H13.1467C13.2249 6.03294 13.2883 6.09633 13.2883 6.17452C13.2883 6.25271 13.3516 6.31609 13.4298 6.31609H13.7152C13.7934 6.31609 13.8568 6.25271 13.8568 6.17452C13.8568 6.09633 13.7934 6.03294 13.7152 6.03294H13.6125C13.5864 6.03294 13.5604 6.03714 13.5356 6.04537L12.8758 6.2643ZM14.4626 6.2441C14.4404 6.28824 14.3952 6.31609 14.3458 6.31609H14.2832C14.205 6.31609 14.1416 6.25271 14.1416 6.17452C14.1416 6.09633 14.205 6.03294 14.2832 6.03294H14.6562C14.686 6.03294 14.7101 6.00881 14.7101 5.97904C14.7101 5.92223 14.6336 5.90407 14.6081 5.95482L14.4626 6.2441ZM14.8069 5.98605C14.7476 6.01541 14.7101 6.07586 14.7101 6.14203C14.7101 6.23816 14.7881 6.31609 14.8842 6.31609H15.0637C15.183 6.31609 15.2797 6.21936 15.2797 6.10002C15.2797 5.93976 15.1114 5.83527 14.9678 5.9064L14.8069 5.98605ZM14.9949 5.75189V6.31609V5.75189Z" stroke="white" stroke-width="0.15" stroke-linecap="square"/>
<path d="M14.1427 6.63269H15.2797M12.7197 6.63269H13.8579H12.7197Z" stroke="white" stroke-width="0.15" stroke-linecap="square"/>
<path d="M15.5645 5.75189H17.2711H15.5645ZM15.7199 6.26357C15.6434 6.28892 15.5645 6.2319 15.5645 6.15125C15.5645 6.08591 15.6174 6.03294 15.6828 6.03294H15.9914C16.0696 6.03294 16.133 6.09633 16.133 6.17452C16.133 6.25271 16.1964 6.31609 16.2746 6.31609H16.5599C16.6381 6.31609 16.7015 6.25271 16.7015 6.17452C16.7015 6.09633 16.6381 6.03294 16.5599 6.03294H16.4563C16.4301 6.03294 16.404 6.03714 16.3792 6.04536L15.7199 6.26357ZM17.3065 6.24302C17.2841 6.28719 17.2388 6.31504 17.1893 6.31504H17.1274C17.0495 6.31504 16.9863 6.25189 16.9863 6.17399C16.9863 6.09609 17.0495 6.03294 17.1274 6.03294H17.5007C17.5306 6.03294 17.5549 6.00871 17.5549 5.97882C17.5549 5.92185 17.4782 5.90356 17.4524 5.9544L17.3065 6.24302ZM17.6516 5.986C17.5923 6.0154 17.5549 6.07583 17.5549 6.14197C17.5549 6.23814 17.6328 6.31609 17.729 6.31609H17.9074C18.0267 6.31609 18.1234 6.21941 18.1234 6.10013C18.1234 5.93988 17.955 5.83545 17.8114 5.90668L17.6516 5.986ZM17.8386 5.75189V6.31609V5.75189Z" stroke="white" stroke-width="0.15" stroke-linecap="square"/>
<path d="M16.9863 6.63269H18.1245M15.5645 6.63269H16.7026H15.5645Z" stroke="white" stroke-width="0.15" stroke-linecap="square"/>
<path d="M7.03125 5.75189H8.73792H7.03125ZM7.18733 6.2643C7.1105 6.2898 7.03125 6.23259 7.03125 6.15164C7.03125 6.08608 7.08439 6.03294 7.14995 6.03294H7.45821C7.5364 6.03294 7.59978 6.09633 7.59978 6.17452C7.59978 6.25271 7.66317 6.31609 7.74136 6.31609H8.02674C8.10493 6.31609 8.16832 6.25271 8.16832 6.17452C8.16832 6.09633 8.10493 6.03294 8.02674 6.03294H7.92405C7.89791 6.03294 7.87194 6.03714 7.84712 6.04537L7.18733 6.2643ZM8.77415 6.24313C8.75193 6.28722 8.70677 6.31504 8.65739 6.31504H8.59417C8.51627 6.31504 8.45312 6.25189 8.45312 6.17399C8.45312 6.09609 8.51627 6.03294 8.59417 6.03294H8.96768C8.99749 6.03294 9.02165 6.00878 9.02165 5.97897C9.02165 5.9221 8.94506 5.9039 8.91948 5.95468L8.77415 6.24313ZM9.11838 5.986C9.05913 6.0154 9.02165 6.07583 9.02165 6.14197C9.02165 6.23814 9.09961 6.31609 9.19577 6.31609H9.37422C9.4935 6.31609 9.59018 6.21941 9.59018 6.10013C9.59018 5.93988 9.42179 5.83545 9.27823 5.90668L9.11838 5.986ZM9.30538 5.75189V6.31609V5.75189Z" stroke="white" stroke-width="0.15" stroke-linecap="square"/>
<path d="M8.45312 6.63269H9.59125M7.03125 6.63269H8.16832H7.03125Z" stroke="white" stroke-width="0.15" stroke-linecap="square"/>
<path d="M9.875 5.75189H11.5817H9.875ZM10.0305 6.26364C9.95391 6.28896 9.875 6.23193 9.875 6.15128C9.875 6.08592 9.92798 6.03294 9.99334 6.03294H10.302C10.3801 6.03294 10.4435 6.09633 10.4435 6.17452C10.4435 6.25271 10.5069 6.31609 10.5851 6.31609H10.8716C10.9497 6.31609 11.0131 6.25271 11.0131 6.17452C11.0131 6.09633 10.9497 6.03294 10.8716 6.03294H10.7678C10.7417 6.03294 10.7157 6.03713 10.6908 6.04534L10.0305 6.26364ZM11.6181 6.24302C11.5957 6.28719 11.5505 6.31504 11.501 6.31504H11.4379C11.36 6.31504 11.2969 6.25189 11.2969 6.17399C11.2969 6.09609 11.36 6.03294 11.4379 6.03294H11.8123C11.8422 6.03294 11.8665 6.00871 11.8665 5.97882C11.8665 5.92185 11.7898 5.90356 11.7641 5.9544L11.6181 6.24302ZM11.9632 5.986C11.9039 6.0154 11.8665 6.07583 11.8665 6.14197C11.8665 6.23814 11.9444 6.31609 12.0406 6.31609H12.219C12.3383 6.31609 12.435 6.21941 12.435 6.10013C12.435 5.93988 12.2666 5.83545 12.123 5.90668L11.9632 5.986ZM12.1502 5.75189V6.31609V5.75189Z" stroke="white" stroke-width="0.15" stroke-linecap="square"/>
<path d="M11.2979 6.63269H12.4361M9.875 6.63269H11.0131H9.875Z" stroke="white" stroke-width="0.15" stroke-linecap="square"/>
<path d="M24.0977 5.75189H25.8043H24.0977ZM24.2531 6.26357C24.1766 6.28892 24.0977 6.2319 24.0977 6.15125C24.0977 6.08591 24.1506 6.03294 24.216 6.03294H24.5246C24.6028 6.03294 24.6662 6.09633 24.6662 6.17452C24.6662 6.25271 24.7296 6.31609 24.8078 6.31609H25.0931C25.1713 6.31609 25.2347 6.25271 25.2347 6.17452C25.2347 6.09633 25.1713 6.03294 25.0931 6.03294H24.9895C24.9633 6.03294 24.9373 6.03714 24.9124 6.04536L24.2531 6.26357ZM25.8397 6.24302C25.8173 6.28719 25.7721 6.31504 25.7226 6.31504H25.6606C25.5827 6.31504 25.5195 6.25189 25.5195 6.17399C25.5195 6.09609 25.5827 6.03294 25.6606 6.03294H26.0339C26.0638 6.03294 26.0881 6.00871 26.0881 5.97882C26.0881 5.92185 26.0114 5.90356 25.9856 5.9544L25.8397 6.24302ZM26.1848 5.986C26.1255 6.0154 26.0881 6.07583 26.0881 6.14197C26.0881 6.23814 26.166 6.31609 26.2622 6.31609H26.4406C26.5599 6.31609 26.6566 6.21941 26.6566 6.10013C26.6566 5.93988 26.4882 5.83545 26.3446 5.90668L26.1848 5.986ZM26.3718 5.75189V6.31609V5.75189Z" stroke="white" stroke-width="0.15" stroke-linecap="square"/>
<path d="M25.5195 6.63269H26.6577M24.0977 6.63269H25.2358H24.0977Z" stroke="white" stroke-width="0.15" stroke-linecap="square"/>
<path d="M26.9414 5.75189H28.6481H26.9414ZM27.0969 6.26364C27.0203 6.28896 26.9414 6.23193 26.9414 6.15128C26.9414 6.08592 26.9944 6.03294 27.0597 6.03294H27.3684C27.4466 6.03294 27.5099 6.09633 27.5099 6.17452C27.5099 6.25271 27.5733 6.31609 27.6515 6.31609H27.938C28.0162 6.31609 28.0795 6.25271 28.0795 6.17452C28.0795 6.09633 28.0162 6.03294 27.938 6.03294H27.8342C27.8081 6.03294 27.7821 6.03713 27.7572 6.04534L27.0969 6.26364ZM28.6845 6.24302C28.6622 6.28719 28.6169 6.31504 28.5674 6.31504H28.5043C28.4264 6.31504 28.3633 6.25189 28.3633 6.17399C28.3633 6.09609 28.4264 6.03294 28.5043 6.03294H28.8788C28.9086 6.03294 28.9329 6.00871 28.9329 5.97882C28.9329 5.92185 28.8562 5.90356 28.8305 5.9544L28.6845 6.24302ZM29.0296 5.986C28.9704 6.0154 28.9329 6.07583 28.9329 6.14197C28.9329 6.23814 29.0108 6.31609 29.107 6.31609H29.2854C29.4047 6.31609 29.5014 6.21941 29.5014 6.10013C29.5014 5.93988 29.333 5.83545 29.1895 5.90668L29.0296 5.986ZM29.2166 5.75189V6.31609V5.75189Z" stroke="white" stroke-width="0.15" stroke-linecap="square"/>
<path d="M28.3643 6.63269H29.5025M26.9414 6.63269H28.0795H26.9414Z" stroke="white" stroke-width="0.15" stroke-linecap="square"/>
<path d="M18.4082 5.75189H20.1149H18.4082ZM18.5637 6.26364C18.4871 6.28896 18.4082 6.23193 18.4082 6.15128C18.4082 6.08592 18.4612 6.03294 18.5265 6.03294H18.8352C18.9134 6.03294 18.9767 6.09633 18.9767 6.17452C18.9767 6.25271 19.0401 6.31609 19.1183 6.31609H19.4048C19.483 6.31609 19.5463 6.25271 19.5463 6.17452C19.5463 6.09633 19.483 6.03294 19.4048 6.03294H19.301C19.2749 6.03294 19.2489 6.03713 19.224 6.04534L18.5637 6.26364ZM20.1513 6.24302C20.129 6.28719 20.0837 6.31504 20.0342 6.31504H19.9711C19.8932 6.31504 19.8301 6.25189 19.8301 6.17399C19.8301 6.09609 19.8932 6.03294 19.9711 6.03294H20.3456C20.3754 6.03294 20.3997 6.00871 20.3997 5.97882C20.3997 5.92185 20.323 5.90356 20.2973 5.9544L20.1513 6.24302ZM20.4964 5.986C20.4371 6.0154 20.3997 6.07583 20.3997 6.14197C20.3997 6.23814 20.4776 6.31609 20.5738 6.31609H20.7522C20.8715 6.31609 20.9682 6.21941 20.9682 6.10013C20.9682 5.93988 20.7998 5.83545 20.6563 5.90668L20.4964 5.986ZM20.6834 5.75189V6.31609V5.75189Z" stroke="white" stroke-width="0.15" stroke-linecap="square"/>
<path d="M19.8311 6.63269H20.9693M18.4082 6.63269H19.5463H18.4082Z" stroke="white" stroke-width="0.15" stroke-linecap="square"/>
<path d="M21.2529 5.75189H22.9596H21.2529ZM21.409 6.2643C21.3322 6.2898 21.2529 6.23259 21.2529 6.15164C21.2529 6.08608 21.3061 6.03294 21.3716 6.03294H21.6799C21.7581 6.03294 21.8215 6.09633 21.8215 6.17452C21.8215 6.25271 21.8848 6.31609 21.963 6.31609H22.2484C22.3266 6.31609 22.39 6.25271 22.39 6.17452C22.39 6.09633 22.3266 6.03294 22.2484 6.03294H22.1457C22.1196 6.03294 22.0936 6.03714 22.0688 6.04537L21.409 6.2643ZM22.9958 6.2441C22.9736 6.28824 22.9284 6.31609 22.879 6.31609H22.8164C22.7382 6.31609 22.6748 6.25271 22.6748 6.17452C22.6748 6.09633 22.7382 6.03294 22.8164 6.03294H23.1894C23.2192 6.03294 23.2433 6.00881 23.2433 5.97904C23.2433 5.92223 23.1668 5.90407 23.1413 5.95482L22.9958 6.2441ZM23.3401 5.98605C23.2808 6.01541 23.2433 6.07586 23.2433 6.14203C23.2433 6.23816 23.3213 6.31609 23.4174 6.31609H23.5969C23.7162 6.31609 23.8129 6.21936 23.8129 6.10002C23.8129 5.93976 23.6446 5.83527 23.501 5.9064L23.3401 5.98605ZM23.5281 5.75189V6.31609V5.75189Z" stroke="white" stroke-width="0.15" stroke-linecap="square"/>
<path d="M22.6759 6.63269H23.8129M21.2529 6.63269H22.3911H21.2529Z" stroke="white" stroke-width="0.15" stroke-linecap="square"/>
<path d="M4.18652 5.75189H5.89319H4.18652ZM4.34261 6.2643C4.26577 6.2898 4.18652 6.23259 4.18652 6.15164C4.18652 6.08608 4.23967 6.03294 4.30522 6.03294H4.61348C4.69167 6.03294 4.75506 6.09633 4.75506 6.17452C4.75506 6.25271 4.81844 6.31609 4.89663 6.31609H5.18201C5.2602 6.31609 5.32359 6.25271 5.32359 6.17452C5.32359 6.09633 5.2602 6.03294 5.18201 6.03294H5.07932C5.05318 6.03294 5.02721 6.03714 5.0024 6.04537L4.34261 6.2643ZM5.9294 6.2441C5.9072 6.28824 5.86201 6.31609 5.8126 6.31609H5.74997C5.67178 6.31609 5.60839 6.25271 5.60839 6.17452C5.60839 6.09633 5.67178 6.03294 5.74997 6.03294H6.12302C6.15279 6.03294 6.17692 6.00881 6.17692 5.97904C6.17692 5.92223 6.10039 5.90407 6.07487 5.95482L5.9294 6.2441ZM6.27374 5.98605C6.21444 6.01541 6.17692 6.07586 6.17692 6.14203C6.17692 6.23816 6.25486 6.31609 6.35099 6.31609H6.53045C6.64978 6.31609 6.74652 6.21936 6.74652 6.10002C6.74652 5.93976 6.57817 5.83527 6.43456 5.9064L6.27374 5.98605ZM6.46172 5.75189V6.31609V5.75189Z" stroke="white" stroke-width="0.15" stroke-linecap="square"/>
<path d="M5.60946 6.63269H6.74652M4.18652 6.63269H5.32466H4.18652Z" stroke="white" stroke-width="0.15" stroke-linecap="square"/>
<path d="M-1.50195 5.75189H0.204714H-1.50195ZM-1.34587 6.2643C-1.4227 6.2898 -1.50195 6.23259 -1.50195 6.15164C-1.50195 6.08608 -1.44881 6.03294 -1.38325 6.03294H-1.075C-0.996806 6.03294 -0.93342 6.09633 -0.93342 6.17452C-0.93342 6.25271 -0.870034 6.31609 -0.791843 6.31609H-0.506463C-0.428273 6.31609 -0.364886 6.25271 -0.364886 6.17452C-0.364886 6.09633 -0.428272 6.03294 -0.506463 6.03294H-0.609152C-0.635294 6.03294 -0.661267 6.03714 -0.686079 6.04537L-1.34587 6.2643ZM0.240947 6.24313C0.218729 6.28722 0.173564 6.31504 0.124187 6.31504H0.0609642C-0.0169358 6.31504 -0.0800863 6.25189 -0.0800863 6.17399C-0.0800863 6.09609 -0.0169359 6.03294 0.0609642 6.03294H0.434474C0.464283 6.03294 0.488447 6.00878 0.488447 5.97897C0.488447 5.9221 0.41186 5.9039 0.386274 5.95468L0.240947 6.24313ZM0.585174 5.986C0.525924 6.0154 0.488447 6.07583 0.488447 6.14197C0.488447 6.23814 0.566404 6.31609 0.662568 6.31609H0.84102C0.960292 6.31609 1.05698 6.21941 1.05698 6.10013C1.05698 5.93988 0.888582 5.83545 0.74503 5.90668L0.585174 5.986ZM0.77218 5.75189V6.31609V5.75189Z" stroke="white" stroke-width="0.15" stroke-linecap="square"/>
<path d="M-0.0800865 6.63269H1.05805M-1.50195 6.63269H-0.364887H-1.50195Z" stroke="white" stroke-width="0.15" stroke-linecap="square"/>
<path d="M1.3418 5.75189H3.04846H1.3418ZM1.49788 6.2643C1.42105 6.2898 1.3418 6.23259 1.3418 6.15164C1.3418 6.08608 1.39494 6.03294 1.4605 6.03294H1.76875C1.84694 6.03294 1.91033 6.09633 1.91033 6.17452C1.91033 6.25271 1.97372 6.31609 2.05191 6.31609H2.33835C2.41654 6.31609 2.47993 6.25271 2.47993 6.17452C2.47993 6.09633 2.41654 6.03294 2.33835 6.03294H2.23475C2.20851 6.03294 2.18244 6.03715 2.15753 6.04542L1.49788 6.2643ZM3.08489 6.24302C3.06255 6.28719 3.01726 6.31504 2.96776 6.31504H2.90578C2.82788 6.31504 2.76473 6.25189 2.76473 6.17399C2.76473 6.09609 2.82788 6.03294 2.90578 6.03294H3.27914C3.30903 6.03294 3.33326 6.00871 3.33326 5.97882C3.33326 5.92185 3.25656 5.90356 3.23085 5.9544L3.08489 6.24302ZM3.42999 5.986C3.37074 6.0154 3.33326 6.07583 3.33326 6.14197C3.33326 6.23814 3.41122 6.31609 3.50738 6.31609H3.68584C3.80511 6.31609 3.9018 6.21941 3.9018 6.10013C3.9018 5.93988 3.7334 5.83545 3.58985 5.90668L3.42999 5.986ZM3.617 5.75189V6.31609V5.75189Z" stroke="white" stroke-width="0.15" stroke-linecap="square"/>
<path d="M2.76473 6.63269H3.9018M1.3418 6.63269H2.47993H1.3418Z" stroke="white" stroke-width="0.15" stroke-linecap="square"/>
<path d="M12.7197 13.6834H14.4264H12.7197ZM12.8752 14.1952C12.7986 14.2205 12.7197 14.1635 12.7197 14.0828C12.7197 14.0174 12.7727 13.9645 12.8381 13.9645H13.1472C13.2251 13.9645 13.2883 14.0276 13.2883 14.1055C13.2883 14.1834 13.3514 14.2466 13.4293 14.2466H13.7157C13.7936 14.2466 13.8568 14.1834 13.8568 14.1055C13.8568 14.0276 13.7936 13.9645 13.7157 13.9645H13.6124C13.5863 13.9645 13.5604 13.9686 13.5357 13.9768L12.8752 14.1952ZM14.4626 14.1746C14.4404 14.2187 14.3952 14.2466 14.3459 14.2466H14.2826C14.2047 14.2466 14.1416 14.1834 14.1416 14.1055C14.1416 14.0276 14.2047 13.9645 14.2826 13.9645H14.6562C14.686 13.9645 14.7101 13.9403 14.7101 13.9105C14.7101 13.8536 14.6335 13.8354 14.608 13.8862L14.4626 14.1746ZM14.8069 13.9176C14.7476 13.9469 14.7101 14.0074 14.7101 14.0735C14.7101 14.1697 14.7881 14.2476 14.8842 14.2476H15.0637C15.183 14.2476 15.2797 14.1509 15.2797 14.0315C15.2797 13.8713 15.1114 13.7668 14.9678 13.8379L14.8069 13.9176ZM14.9949 13.6834V14.2466V13.6834Z" stroke="white" stroke-width="0.15" stroke-linecap="square"/>
<path d="M14.1427 13.367H15.2797M12.7197 13.367H13.8579H12.7197Z" stroke="white" stroke-width="0.15" stroke-linecap="square"/>
<path d="M15.5645 13.6834H17.2711H15.5645ZM15.7199 14.1951C15.6434 14.2204 15.5645 14.1634 15.5645 14.0828C15.5645 14.0174 15.6174 13.9645 15.6828 13.9645H15.9919C16.0698 13.9645 16.133 14.0276 16.133 14.1055C16.133 14.1834 16.1961 14.2466 16.274 14.2466H16.5605C16.6384 14.2466 16.7015 14.1834 16.7015 14.1055C16.7015 14.0276 16.6384 13.9645 16.5605 13.9645H16.4563C16.4301 13.9645 16.404 13.9687 16.3792 13.9769L15.7199 14.1951ZM17.3065 14.1745C17.2841 14.2187 17.2388 14.2466 17.1893 14.2466H17.1274C17.0495 14.2466 16.9863 14.1834 16.9863 14.1055C16.9863 14.0276 17.0495 13.9645 17.1274 13.9645H17.5007C17.5306 13.9645 17.5549 13.9402 17.5549 13.9103C17.5549 13.8534 17.4782 13.8351 17.4524 13.8859L17.3065 14.1745ZM17.6516 13.9175C17.5923 13.9469 17.5549 14.0073 17.5549 14.0735C17.5549 14.1697 17.6328 14.2476 17.729 14.2476H17.9074C18.0267 14.2476 18.1234 14.1509 18.1234 14.0317C18.1234 13.8714 17.955 13.767 17.8114 13.8382L17.6516 13.9175ZM17.8397 13.6834V14.2466V13.6834Z" stroke="white" stroke-width="0.15" stroke-linecap="square"/>
<path d="M16.9874 13.367H18.1255M15.5645 13.367H16.7026H15.5645Z" stroke="white" stroke-width="0.15" stroke-linecap="square"/>
<path d="M7.03125 13.6834H8.73792H7.03125ZM7.18674 14.1952C7.11016 14.2205 7.03125 14.1635 7.03125 14.0828C7.03125 14.0174 7.08423 13.9645 7.14959 13.9645H7.45873C7.53663 13.9645 7.59978 14.0276 7.59978 14.1055C7.59978 14.1834 7.66293 14.2466 7.74083 14.2466H8.02727C8.10517 14.2466 8.16832 14.1834 8.16832 14.1055C8.16832 14.0276 8.10517 13.9645 8.02727 13.9645H7.92393C7.89787 13.9645 7.87197 13.9686 7.84722 13.9768L7.18674 14.1952ZM8.77415 14.1746C8.75193 14.2187 8.70677 14.2466 8.65739 14.2466H8.59417C8.51627 14.2466 8.45312 14.1834 8.45312 14.1055C8.45312 14.0276 8.51627 13.9645 8.59417 13.9645H8.96768C8.99749 13.9645 9.02165 13.9403 9.02165 13.9105C9.02165 13.8536 8.94506 13.8354 8.91948 13.8862L8.77415 14.1746ZM9.11838 13.9175C9.05913 13.9469 9.02165 14.0073 9.02165 14.0735C9.02165 14.1697 9.09961 14.2476 9.19577 14.2476H9.37422C9.4935 14.2476 9.59018 14.1509 9.59018 14.0317C9.59018 13.8714 9.42179 13.767 9.27823 13.8382L9.11838 13.9175ZM9.30645 13.6834V14.2466V13.6834Z" stroke="white" stroke-width="0.15" stroke-linecap="square"/>
<path d="M8.45312 13.367H9.59125M7.03125 13.367H8.16832H7.03125Z" stroke="white" stroke-width="0.15" stroke-linecap="square"/>
<path d="M9.875 13.6834H11.5817H9.875ZM10.0305 14.1952C9.95391 14.2205 9.875 14.1635 9.875 14.0828C9.875 14.0174 9.92798 13.9645 9.99334 13.9645H10.3025C10.3804 13.9645 10.4435 14.0276 10.4435 14.1055C10.4435 14.1834 10.5067 14.2466 10.5846 14.2466H10.8721C10.95 14.2466 11.0131 14.1834 11.0131 14.1055C11.0131 14.0276 10.95 13.9645 10.8721 13.9645H10.7678C10.7417 13.9645 10.7157 13.9686 10.6908 13.9769L10.0305 14.1952ZM11.6181 14.1745C11.5957 14.2187 11.5505 14.2466 11.501 14.2466H11.4379C11.36 14.2466 11.2969 14.1834 11.2969 14.1055C11.2969 14.0276 11.36 13.9645 11.4379 13.9645H11.8123C11.8422 13.9645 11.8665 13.9402 11.8665 13.9103C11.8665 13.8534 11.7898 13.8351 11.7641 13.8859L11.6181 14.1745ZM11.9632 13.9175C11.9039 13.9469 11.8665 14.0073 11.8665 14.0735C11.8665 14.1697 11.9444 14.2476 12.0406 14.2476H12.219C12.3383 14.2476 12.435 14.1509 12.435 14.0317C12.435 13.8714 12.2666 13.767 12.123 13.8382L11.9632 13.9175ZM12.1502 13.6834V14.2466V13.6834Z" stroke="white" stroke-width="0.15" stroke-linecap="square"/>
<path d="M11.2979 13.367H12.4361M9.875 13.367H11.0131H9.875Z" stroke="white" stroke-width="0.15" stroke-linecap="square"/>
<path d="M24.0977 13.6834H25.8043H24.0977ZM24.2531 14.1951C24.1766 14.2204 24.0977 14.1634 24.0977 14.0828C24.0977 14.0174 24.1506 13.9645 24.216 13.9645H24.5251C24.603 13.9645 24.6662 14.0276 24.6662 14.1055C24.6662 14.1834 24.7293 14.2466 24.8072 14.2466H25.0937C25.1716 14.2466 25.2347 14.1834 25.2347 14.1055C25.2347 14.0276 25.1716 13.9645 25.0937 13.9645H24.9895C24.9633 13.9645 24.9373 13.9687 24.9124 13.9769L24.2531 14.1951ZM25.8397 14.1745C25.8173 14.2187 25.7721 14.2466 25.7226 14.2466H25.6606C25.5827 14.2466 25.5195 14.1834 25.5195 14.1055C25.5195 14.0276 25.5827 13.9645 25.6606 13.9645H26.0339C26.0638 13.9645 26.0881 13.9402 26.0881 13.9103C26.0881 13.8534 26.0114 13.8351 25.9856 13.8859L25.8397 14.1745ZM26.1848 13.9175C26.1255 13.9469 26.0881 14.0073 26.0881 14.0735C26.0881 14.1697 26.166 14.2476 26.2622 14.2476H26.4406C26.5599 14.2476 26.6566 14.1509 26.6566 14.0317C26.6566 13.8714 26.4882 13.767 26.3446 13.8382L26.1848 13.9175ZM26.3729 13.6834V14.2466V13.6834Z" stroke="white" stroke-width="0.15" stroke-linecap="square"/>
<path d="M25.5206 13.367H26.6587M24.0977 13.367H25.2358H24.0977Z" stroke="white" stroke-width="0.15" stroke-linecap="square"/>
<path d="M26.9414 13.6834H28.6481H26.9414ZM27.0969 14.1952C27.0203 14.2205 26.9414 14.1635 26.9414 14.0828C26.9414 14.0174 26.9944 13.9645 27.0597 13.9645H27.3689C27.4468 13.9645 27.5099 14.0276 27.5099 14.1055C27.5099 14.1834 27.5731 14.2466 27.651 14.2466H27.9385C28.0164 14.2466 28.0795 14.1834 28.0795 14.1055C28.0795 14.0276 28.0164 13.9645 27.9385 13.9645H27.8342C27.8081 13.9645 27.7821 13.9686 27.7572 13.9769L27.0969 14.1952ZM28.6845 14.1745C28.6622 14.2187 28.6169 14.2466 28.5674 14.2466H28.5043C28.4264 14.2466 28.3633 14.1834 28.3633 14.1055C28.3633 14.0276 28.4264 13.9645 28.5043 13.9645H28.8788C28.9086 13.9645 28.9329 13.9402 28.9329 13.9103C28.9329 13.8534 28.8562 13.8351 28.8305 13.8859L28.6845 14.1745ZM29.0296 13.9175C28.9704 13.9469 28.9329 14.0073 28.9329 14.0735C28.9329 14.1697 29.0108 14.2476 29.107 14.2476H29.2854C29.4047 14.2476 29.5014 14.1509 29.5014 14.0317C29.5014 13.8714 29.333 13.767 29.1895 13.8382L29.0296 13.9175ZM29.2166 13.6834V14.2466V13.6834Z" stroke="white" stroke-width="0.15" stroke-linecap="square"/>
<path d="M28.3643 13.367H29.5025M26.9414 13.367H28.0795H26.9414Z" stroke="white" stroke-width="0.15" stroke-linecap="square"/>
<path d="M18.4082 13.6834H20.1149H18.4082ZM18.5637 14.1952C18.4871 14.2205 18.4082 14.1635 18.4082 14.0828C18.4082 14.0174 18.4612 13.9645 18.5265 13.9645H18.8357C18.9136 13.9645 18.9767 14.0276 18.9767 14.1055C18.9767 14.1834 19.0399 14.2466 19.1178 14.2466H19.4053C19.4832 14.2466 19.5463 14.1834 19.5463 14.1055C19.5463 14.0276 19.4832 13.9645 19.4053 13.9645H19.301C19.2749 13.9645 19.2489 13.9686 19.224 13.9769L18.5637 14.1952ZM20.1513 14.1745C20.129 14.2187 20.0837 14.2466 20.0342 14.2466H19.9711C19.8932 14.2466 19.8301 14.1834 19.8301 14.1055C19.8301 14.0276 19.8932 13.9645 19.9711 13.9645H20.3456C20.3754 13.9645 20.3997 13.9402 20.3997 13.9103C20.3997 13.8534 20.323 13.8351 20.2973 13.8859L20.1513 14.1745ZM20.4964 13.9175C20.4371 13.9469 20.3997 14.0073 20.3997 14.0735C20.3997 14.1697 20.4776 14.2476 20.5738 14.2476H20.7522C20.8715 14.2476 20.9682 14.1509 20.9682 14.0317C20.9682 13.8714 20.7998 13.767 20.6563 13.8382L20.4964 13.9175ZM20.6834 13.6834V14.2466V13.6834Z" stroke="white" stroke-width="0.15" stroke-linecap="square"/>
<path d="M19.8311 13.367H20.9693M18.4082 13.367H19.5463H18.4082Z" stroke="white" stroke-width="0.15" stroke-linecap="square"/>
<path d="M21.2529 13.6834H22.9596H21.2529ZM21.4084 14.1952C21.3318 14.2205 21.2529 14.1635 21.2529 14.0828C21.2529 14.0174 21.3059 13.9645 21.3713 13.9645H21.6804C21.7583 13.9645 21.8215 14.0276 21.8215 14.1055C21.8215 14.1834 21.8846 14.2466 21.9625 14.2466H22.2489C22.3268 14.2466 22.39 14.1834 22.39 14.1055C22.39 14.0276 22.3268 13.9645 22.2489 13.9645H22.1456C22.1195 13.9645 22.0937 13.9686 22.0689 13.9768L21.4084 14.1952ZM22.9958 14.1746C22.9736 14.2187 22.9284 14.2466 22.8791 14.2466H22.8158C22.7379 14.2466 22.6748 14.1834 22.6748 14.1055C22.6748 14.0276 22.7379 13.9645 22.8158 13.9645H23.1894C23.2192 13.9645 23.2433 13.9403 23.2433 13.9105C23.2433 13.8536 23.1667 13.8354 23.1412 13.8862L22.9958 14.1746ZM23.3401 13.9176C23.2808 13.9469 23.2433 14.0074 23.2433 14.0735C23.2433 14.1697 23.3213 14.2476 23.4174 14.2476H23.5969C23.7162 14.2476 23.8129 14.1509 23.8129 14.0315C23.8129 13.8713 23.6446 13.7668 23.501 13.8379L23.3401 13.9176ZM23.5281 13.6834V14.2466V13.6834Z" stroke="white" stroke-width="0.15" stroke-linecap="square"/>
<path d="M22.6759 13.367H23.8129M21.2529 13.367H22.3911H21.2529Z" stroke="white" stroke-width="0.15" stroke-linecap="square"/>
<path d="M4.18652 13.6834H5.89319H4.18652ZM4.34201 14.1952C4.26543 14.2205 4.18652 14.1635 4.18652 14.0828C4.18652 14.0174 4.23951 13.9645 4.30486 13.9645H4.61401C4.69191 13.9645 4.75506 14.0276 4.75506 14.1055C4.75506 14.1834 4.81821 14.2466 4.89611 14.2466H5.18254C5.26044 14.2466 5.32359 14.1834 5.32359 14.1055C5.32359 14.0276 5.26044 13.9645 5.18254 13.9645H5.07921C5.05314 13.9645 5.02724 13.9686 5.0025 13.9768L4.34201 14.1952ZM5.92942 14.1746C5.90721 14.2187 5.86204 14.2466 5.81266 14.2466H5.74944C5.67154 14.2466 5.60839 14.1834 5.60839 14.1055C5.60839 14.0276 5.67154 13.9645 5.74944 13.9645H6.12295C6.15276 13.9645 6.17692 13.9403 6.17692 13.9105C6.17692 13.8536 6.10034 13.8354 6.07475 13.8862L5.92942 14.1746ZM6.27374 13.9176C6.21444 13.9469 6.17692 14.0074 6.17692 14.0735C6.17692 14.1697 6.25486 14.2476 6.35099 14.2476H6.53045C6.64978 14.2476 6.74652 14.1509 6.74652 14.0315C6.74652 13.8713 6.57817 13.7668 6.43456 13.8379L6.27374 13.9176ZM6.46172 13.6834V14.2466V13.6834Z" stroke="white" stroke-width="0.15" stroke-linecap="square"/>
<path d="M5.60946 13.367H6.74652M4.18652 13.367H5.32466H4.18652Z" stroke="white" stroke-width="0.15" stroke-linecap="square"/>
<path d="M-1.50195 13.6834H0.204714H-1.50195ZM-1.34647 14.1952C-1.42304 14.2205 -1.50195 14.1635 -1.50195 14.0828C-1.50195 14.0174 -1.44897 13.9645 -1.38361 13.9645H-1.07447C-0.99657 13.9645 -0.93342 14.0276 -0.93342 14.1055C-0.93342 14.1834 -0.870269 14.2466 -0.792369 14.2466H-0.505937C-0.428037 14.2466 -0.364886 14.1834 -0.364886 14.1055C-0.364886 14.0276 -0.428037 13.9645 -0.505937 13.9645H-0.609271C-0.635336 13.9645 -0.661232 13.9686 -0.685979 13.9768L-1.34647 14.1952ZM0.240947 14.1746C0.218729 14.2187 0.173564 14.2466 0.124187 14.2466H0.0609646C-0.0169357 14.2466 -0.0800863 14.1834 -0.0800863 14.1055C-0.0800863 14.0276 -0.0169357 13.9645 0.0609645 13.9645H0.434475C0.464283 13.9645 0.488447 13.9403 0.488447 13.9105C0.488447 13.8536 0.41186 13.8354 0.386274 13.8862L0.240947 14.1746ZM0.585175 13.9175C0.525924 13.9469 0.488447 14.0073 0.488447 14.0735C0.488447 14.1697 0.566404 14.2476 0.662568 14.2476H0.84102C0.960291 14.2476 1.05698 14.1509 1.05698 14.0317C1.05698 13.8714 0.888583 13.767 0.74503 13.8382L0.585175 13.9175ZM0.773247 13.6834V14.2466V13.6834Z" stroke="white" stroke-width="0.15" stroke-linecap="square"/>
<path d="M-0.0800865 13.367H1.05805M-1.50195 13.367H-0.364887H-1.50195Z" stroke="white" stroke-width="0.15" stroke-linecap="square"/>
<path d="M1.3418 13.6834H3.04846H1.3418ZM1.49728 14.1952C1.42071 14.2205 1.3418 14.1635 1.3418 14.0828C1.3418 14.0174 1.39478 13.9645 1.46014 13.9645H1.76928C1.84718 13.9645 1.91033 14.0276 1.91033 14.1055C1.91033 14.1834 1.97348 14.2466 2.05138 14.2466H2.33888C2.41678 14.2466 2.47993 14.1834 2.47993 14.1055C2.47993 14.0276 2.41678 13.9645 2.33888 13.9645H2.23463C2.20846 13.9645 2.18247 13.9686 2.15763 13.9769L1.49728 14.1952ZM3.08489 14.1745C3.06255 14.2187 3.01726 14.2466 2.96776 14.2466H2.90578C2.82788 14.2466 2.76473 14.1834 2.76473 14.1055C2.76473 14.0276 2.82788 13.9645 2.90578 13.9645H3.27914C3.30903 13.9645 3.33326 13.9402 3.33326 13.9103C3.33326 13.8534 3.25656 13.8351 3.23085 13.8859L3.08489 14.1745ZM3.42999 13.9175C3.37074 13.9469 3.33326 14.0073 3.33326 14.0735C3.33326 14.1697 3.41122 14.2476 3.50738 14.2476H3.68584C3.80511 14.2476 3.9018 14.1509 3.9018 14.0317C3.9018 13.8714 3.7334 13.767 3.58985 13.8382L3.42999 13.9175ZM3.617 13.6834V14.2466V13.6834Z" stroke="white" stroke-width="0.15" stroke-linecap="square"/>
<path d="M2.76473 13.367H3.9018M1.3418 13.367H2.47993H1.3418Z" stroke="white" stroke-width="0.15" stroke-linecap="square"/>
<path d="M16.1911 9.71285C16.1258 9.32921 15.5512 9.07697 15.6861 9.44202C15.8152 9.79152 16.1413 10.6171 16.1958 10.2485C16.2221 10.0709 16.2212 9.88984 16.1911 9.71285Z" fill="#DA0000"/>
<path d="M14.309 8.31707C14.127 8.345 13.8724 8.34382 13.6904 8.31556C13.6339 8.3068 13.5806 8.28406 13.5359 8.25116C13.3938 8.14672 13.7183 8.17413 13.8718 8.08738C14 8.01494 14 8.01494 14.1283 8.08738C14.2818 8.17413 14.6065 8.14652 14.465 8.25169C14.4199 8.2852 14.3661 8.30833 14.309 8.31707Z" fill="#DA0000"/>
<path d="M14.128 12.0274C14.0638 12.109 13.9388 12.1097 13.8754 12.0274C13.8366 11.977 13.7717 11.9551 13.7093 11.967C13.6083 11.9861 13.5061 11.9962 13.404 11.9973C13.2763 11.9986 13.3905 11.837 13.5128 11.8001C13.6037 11.7727 13.5161 11.6855 13.4397 11.6292C13.1279 11.3995 12.5511 10.8567 12.5667 9.99283C12.5897 9.56254 12.847 9.70733 12.9358 10.129C12.9665 10.2748 13.0152 10.4245 13.0868 10.5757C13.277 10.9773 13.7763 10.7566 13.7569 10.3127L13.7326 9.75599V8.64539C13.7326 8.5608 13.8083 8.46651 13.8716 8.41044C13.9544 8.33709 14.0505 8.33709 14.1333 8.41044C14.1966 8.46651 14.2723 8.5608 14.2723 8.64539V9.75599L14.2476 10.3202C14.2283 10.7617 14.7251 10.9819 14.9161 10.5834C14.9901 10.4291 15.0401 10.2763 15.0713 10.1277C15.1591 9.70906 15.4142 9.56578 15.4382 9.99283C15.4539 10.8629 14.8696 11.4068 14.5593 11.6337C14.4833 11.6893 14.3933 11.7711 14.4833 11.7991C14.6067 11.8374 14.7224 11.9991 14.5931 11.9972C14.4936 11.9957 14.3941 11.9856 14.2957 11.967C14.2331 11.9551 14.1675 11.9773 14.128 12.0274Z" fill="#DA0000"/>
<path d="M11.8087 9.71285C11.8741 9.32921 12.4486 9.07697 12.3137 9.44202C12.1846 9.79152 11.8585 10.6171 11.804 10.2485C11.7777 10.0709 11.7786 9.88984 11.8087 9.71285Z" fill="#DA0000"/>
</g>
<defs>
<clipPath id="clip0_69_1950">
<rect width="28" height="20" rx="2" fill="white"/>
</clipPath>
</defs>
</svg>
