<svg width="150" height="150" viewBox="0 0 150 150" fill="none" xmlns="http://www.w3.org/2000/svg">
<path d="M39.6315 22.8173C40.1728 12.0148 33.2704 0.460728 21.5875 0.336324C19.799 -0.389858 16.4122 0.211249 14.6087 0.720236C3.58851 3.83124 -2.32649 15.0701 0.859062 25.9954C2.72861 32.4084 6.42719 35.4269 12.0549 38.5358L12.0508 84.4197C12.0472 87.7634 11.4591 91.0115 14.0128 93.6088C16.8938 96.5403 21.8875 96.6722 24.8058 93.702C26.9485 91.521 26.7359 88.6203 26.7373 85.7948L26.735 58.4173V38.5358C28.6491 38.025 30.3321 36.862 31.939 35.7462C37.6222 38.6605 44.0043 42.2484 49.5146 45.4656L55.1888 48.8202C57.9565 50.4609 60.9231 52.6087 64.3107 51.7167C69.8461 50.2598 72.0206 43.3673 67.4057 39.4396C66.3059 38.5031 64.9471 37.8281 63.7008 37.108L58.2296 33.9195C52.0264 30.2342 45.9157 26.3634 39.6315 22.8173Z" fill="#DCE8FF"/>
<path d="M137.499 38.8339C138.965 37.9856 140.479 37.1623 141.849 36.1643C156.404 25.5679 150.462 3.14678 131.987 0.33643C118.991 -1.11525 107.804 10.8732 110.221 23.8708L34.3463 109.367C33.0312 110.843 31.6564 112.297 30.4843 113.891C21.2558 107.78 8.12984 110.427 2.5608 120.259C-2.80339 129.729 0.551961 142.19 10.1287 147.482C25.4064 155.925 43.7022 141.778 38.7814 125.192C41.8226 122.231 44.5867 118.96 47.4363 115.815L102.863 54.5674C108.113 48.712 113.398 42.7807 118.893 37.1623L122.468 38.8339L122.471 89.2331C122.471 96.686 122.38 104.148 122.468 111.601C120.561 111.819 119.227 112.852 117.682 113.891C111.414 110.509 104.945 106.697 98.7839 103.115C95.9662 101.48 91.4232 98.4782 88.4825 97.4866C81.1559 95.0099 75.8036 105.196 81.2178 109.906C83.2476 111.671 85.9834 112.893 88.3118 114.264C95.4654 118.474 102.783 122.415 109.957 126.593C107.895 151.895 139.329 157.496 147.858 138.569C152.469 128.333 147.755 116.145 137.499 111.601V46.2203C137.497 43.7873 137.299 41.2496 137.499 38.8339Z" fill="#DCE8FF"/>
<path d="M137.499 38.8339C138.965 37.9856 140.479 37.1623 141.849 36.1643C156.404 25.5679 150.462 3.14678 131.987 0.33643C118.991 -1.11525 107.804 10.8732 110.221 23.8708L34.3463 109.367C33.0312 110.843 31.6564 112.297 30.4843 113.891C21.2558 107.78 8.12984 110.427 2.5608 120.259C-2.80339 129.729 0.551961 142.19 10.1287 147.482C25.4064 155.925 43.7022 141.778 38.7814 125.192C41.8226 122.231 44.5867 118.96 47.4363 115.815L102.863 54.5674C108.113 48.712 113.398 42.7807 118.893 37.1623L122.468 38.8339L122.471 89.2331C122.471 96.686 122.38 104.148 122.468 111.601C120.561 111.819 119.227 112.852 117.682 113.891C111.414 110.509 104.945 106.697 98.7839 103.115C95.9662 101.48 91.4232 98.4782 88.4825 97.4866C81.1559 95.0099 75.8036 105.196 81.2178 109.906C83.2476 111.671 85.9834 112.893 88.3118 114.264C95.4654 118.474 102.783 122.415 109.957 126.593C107.895 151.895 139.329 157.496 147.858 138.569C152.469 128.333 147.755 116.145 137.499 111.601V46.2203C137.497 43.7873 137.299 41.2496 137.499 38.8339Z" fill="#DCE8FF"/>
<path d="M39.6315 22.8173C40.1728 12.0148 33.2704 0.460728 21.5875 0.336324C19.799 -0.389858 16.4122 0.211249 14.6087 0.720236C3.58851 3.83124 -2.32649 15.0701 0.859062 25.9954C2.72861 32.4084 6.42719 35.4269 12.0549 38.5358L12.0508 84.4197C12.0472 87.7634 11.4591 91.0115 14.0128 93.6088C16.8938 96.5403 21.8875 96.6722 24.8058 93.702C26.9485 91.521 26.7359 88.6203 26.7373 85.7948L26.735 58.4173V38.5358C28.6491 38.025 30.3321 36.862 31.939 35.7462C37.6222 38.6605 44.0043 42.2484 49.5146 45.4656L55.1888 48.8202C57.9565 50.4609 60.9231 52.6087 64.3107 51.7167C69.8461 50.2598 72.0206 43.3673 67.4057 39.4396C66.3059 38.5031 64.9471 37.8281 63.7008 37.108L58.2296 33.9195C52.0264 30.2342 45.9157 26.3634 39.6315 22.8173Z" fill="#DCE8FF"/>
</svg>
