<svg width="190" height="66" viewBox="0 0 190 66" fill="none" xmlns="http://www.w3.org/2000/svg">
<rect width="190" height="65.0302" rx="32.5151" fill="#FDDD35"/>
<g clip-path="url(#clip0_7_122)">
<path d="M30 33.1151V32.0151C31.3 32.0151 32.6 31.5151 33.6 30.5151C34.5 29.6151 35 28.3151 35 27.0151H36C36 28.3151 36.5 29.6151 37.5 30.5151C38.4 31.4151 39.7 32.0151 41.1 32.0151V33.1151C39.8 33.1151 38.5 33.6151 37.5 34.6151C36.6 35.5151 36 36.7151 36 38.1151H35C35 36.7151 34.5 35.5151 33.6 34.5151C32.6 33.6151 31.3 33.1151 30 33.1151ZM35 25.1151H43.7C47.9 25.1151 51 28.1151 51 32.5151C51 36.9151 48 39.9151 43.7 39.9151H35V52.5151H38.6V43.1151H43.6C49.7 43.1151 54.5 38.3151 54.5 32.5151C54.5 26.7151 49.7 21.9151 43.6 21.9151H35V25.1151ZM67.6 21.9151C70.8 21.9151 73.6 23.5151 75.4 26.0151V22.5151H79V42.5151H75.4V39.0151C73.6 41.5151 70.8 43.1151 67.6 43.1151C61.6 43.1151 56.6 38.4151 56.6 32.5151C56.6 26.5151 61.6 21.9151 67.6 21.9151ZM67.6 39.9151C72.3 39.9151 75.4 36.7151 75.4 32.5151C75.4 28.2151 72.3 25.1151 67.6 25.1151C63.4 25.1151 60.2 28.1151 60.2 32.5151C60.2 36.9151 63.4 39.9151 67.6 39.9151ZM92.4 21.9151C95.6 21.9151 98.4 23.5151 100.2 26.0151V12.5151H103.8V42.5151H100.2V39.0151C98.4 41.5151 95.6 43.1151 92.4 43.1151C86.4 43.1151 81.4 38.4151 81.4 32.5151C81.4 26.5151 86.4 21.9151 92.4 21.9151ZM92.4 39.9151C97.1 39.9151 100.2 36.7151 100.2 32.5151C100.2 28.2151 97.1 25.1151 92.4 25.1151C88.2 25.1151 85 28.1151 85 32.5151C85 36.9151 88.2 39.9151 92.4 39.9151ZM117.6 21.9151C120.8 21.9151 123.6 23.5151 125.4 26.0151V12.5151H129V42.5151H125.4V39.0151C123.6 41.5151 120.8 43.1151 117.6 43.1151C111.6 43.1151 106.6 38.4151 106.6 32.5151C106.6 26.5151 111.7 21.9151 117.6 21.9151ZM117.6 39.9151C122.3 39.9151 125.4 36.7151 125.4 32.5151C125.4 28.2151 122.3 25.1151 117.6 25.1151C113.4 25.1151 110.2 28.1151 110.2 32.5151C110.2 36.9151 113.4 39.9151 117.6 39.9151ZM132.6 42.5151V12.5151H136.2V42.5151H132.6ZM149.7 21.9151C156.7 21.9151 160 27.3151 160 33.9151H142.6C143.2 37.8151 146.1 40.3151 149.7 40.3151C152.2 40.3151 154.1 39.2151 155.6 37.0151H159.5C158.1 40.1151 154.5 43.1151 149.7 43.1151C143.6 43.1151 138.9 38.3151 138.9 32.5151C138.9 26.7151 143.6 21.9151 149.7 21.9151ZM156.4 31.1151C156.4 27.8151 153.6 24.7151 149.7 24.7151C146.1 24.7151 143.2 27.2151 142.6 31.1151H156.4Z" fill="black"/>
</g>
<defs>
<clipPath id="clip0_7_122">
<rect width="130" height="40" fill="white" transform="translate(30 12.5151)"/>
</clipPath>
</defs>
</svg>
