<svg width="275" height="84" viewBox="0 0 275 84" fill="none" xmlns="http://www.w3.org/2000/svg">
<path d="M70.8315 16.5508L46.5807 19.6302C44.85 19.85 43.5527 21.3224 43.5527 23.067V47.9185C43.5527 49.6528 44.8352 51.1199 46.5539 51.3518L70.8047 54.6237C72.8833 54.9042 74.7323 53.2879 74.7323 51.1905V19.9876C74.7323 17.901 72.9014 16.2879 70.8315 16.5508Z" fill="white"/>
<path d="M55.5918 -0.579107L2.88337 8.38788C1.21816 8.67117 0 10.1141 0 11.8032V60.853C0 62.558 1.2406 64.0095 2.92481 64.2751L55.6332 72.586C57.7357 72.9175 59.6372 71.2923 59.6372 69.1638V58.4934C59.6372 57.9976 59.2704 57.5783 58.779 57.5124L42.3495 55.3084C40.6296 55.0777 39.3457 53.6101 39.3457 51.8748V35.975V19.9675C39.3457 18.2792 40.5628 16.8367 42.2271 16.5526L58.8139 13.7207C59.2895 13.6395 59.6372 13.2273 59.6372 12.7449V2.83622C59.6372 0.690714 57.7069 -0.93894 55.5918 -0.579107Z" fill="#1252D3"/>
<path d="M15.2437 41.7181C15.4021 43.0247 15.798 43.9749 16.3127 44.648C17.2629 45.7962 18.9258 46.3901 21.2618 46.3901C22.6872 46.3901 23.8354 46.2318 24.7064 45.915C26.3694 45.3211 27.2008 44.2125 27.2008 42.6288C27.2008 41.6785 26.8049 40.9659 25.9734 40.4511C25.142 39.9364 23.8354 39.5009 22.0537 39.105L19.0446 38.4319C16.1147 37.7588 14.0559 37.0461 12.9077 36.2543C11.0072 34.9081 10.0174 32.8889 10.0174 30.0777C10.0174 27.5042 10.9676 25.4057 12.8285 23.7032C14.6498 22.0403 17.3817 21.1693 20.9847 21.1693C23.9938 21.1693 26.5673 21.9611 28.6658 23.5449C30.8038 25.1682 31.9124 27.4646 31.9916 30.5133H26.2902C26.1714 28.7712 25.4191 27.5438 24.0334 26.8311C23.1227 26.356 21.9349 26.1184 20.5888 26.1184C19.0446 26.1184 17.8172 26.4352 16.9066 27.0687C15.996 27.6626 15.5208 28.5336 15.5208 29.6422C15.5208 30.6716 15.996 31.4239 16.9066 31.9386C17.4609 32.2554 18.6883 32.6513 20.5888 33.1264L25.4983 34.2746C27.6759 34.8289 29.2993 35.502 30.3683 36.3731C32.0708 37.6796 32.9418 39.6593 32.9418 42.1932C32.9418 44.7668 31.952 46.9444 29.9723 48.6469C27.9531 50.389 25.142 51.2601 21.4994 51.2601C17.8172 51.2601 14.8873 50.389 12.7493 48.6865C10.6113 47.0236 9.58186 44.6876 9.58186 41.7181H15.2437Z" fill="white"/>
<path d="M62.1444 40.9102H59.7976L59.1353 38.7793H55.3056L54.6001 40.9102H52.3253L56.0254 30.5439H58.473L62.1444 40.9102ZM57.2348 32.9195L55.8959 36.994H58.5306L57.2348 32.9195ZM63.2772 30.5439H65.4368V40.9102H63.2772V30.5439Z" fill="#161616"/>
<path d="M106.205 48.663C106.511 51.1871 107.276 53.0227 108.27 54.323C110.106 56.5411 113.318 57.6884 117.831 57.6884C120.584 57.6884 122.802 57.3825 124.485 56.7706C127.698 55.6233 129.304 53.4817 129.304 50.4222C129.304 48.5865 128.539 47.2098 126.933 46.2154C125.326 45.2211 122.802 44.3797 119.36 43.6149L113.547 42.3146C107.887 41.0143 103.91 39.6376 101.692 38.1078C98.0207 35.5073 96.1085 31.6064 96.1085 26.1759C96.1085 21.2042 97.9442 17.1504 101.539 13.8615C105.057 10.6491 110.335 8.96636 117.295 8.96636C123.108 8.96636 128.08 10.4961 132.134 13.5556C136.264 16.6915 138.406 21.1278 138.559 27.0172H127.545C127.315 23.6518 125.862 21.2807 123.185 19.904C121.426 18.9861 119.131 18.5272 116.53 18.5272C113.547 18.5272 111.176 19.1391 109.417 20.3629C107.658 21.5102 106.74 23.1929 106.74 25.3345C106.74 27.3232 107.658 28.7764 109.417 29.7708C110.488 30.3827 112.859 31.1475 116.53 32.0654L126.015 34.2835C130.222 35.3543 133.358 36.6546 135.423 38.3373C138.712 40.8614 140.394 44.6857 140.394 49.5808C140.394 54.5525 138.482 58.7593 134.658 62.0482C130.757 65.4136 125.326 67.0963 118.29 67.0963C111.176 67.0963 105.516 65.4136 101.386 62.1247C97.2558 58.9122 95.2671 54.3995 95.2671 48.663H106.205ZM148.272 10.5726H158.904V65.6431H148.272V10.5726ZM169.483 10.2666H180.268V20.0569H169.483V10.2666ZM180.268 65.6431H169.483V24.9521H180.268V65.6431ZM212.187 25.564C214.1 26.6348 215.706 28.1645 216.853 30.0767V10.6491H227.638V65.6431H217.312V59.983C215.782 62.4306 214.1 64.1898 212.111 65.2606C210.199 66.3314 207.751 66.9433 204.845 66.9433C200.102 66.9433 196.125 64.9547 192.913 61.1303C189.624 57.306 188.018 52.3344 188.018 46.3684C188.018 39.4081 189.624 33.9011 192.836 29.9237C195.972 25.9464 200.255 23.9578 205.609 23.9578C208.057 23.9578 210.275 24.4932 212.187 25.564ZM214.788 54.5525C216.394 52.3344 217.159 49.4279 217.159 45.9095C217.159 40.9378 215.935 37.343 213.411 35.2013C211.881 33.9011 210.046 33.2892 207.981 33.2892C204.921 33.2892 202.626 34.4365 201.173 36.8076C199.72 39.1022 198.955 42.0851 198.955 45.527C198.955 49.3514 199.72 52.3344 201.25 54.5525C202.703 56.8471 204.921 57.9179 207.981 57.9179C210.964 57.9179 213.258 56.8471 214.788 54.5525ZM240.36 73.5212C241.43 73.5977 242.425 73.5212 243.343 73.4447C244.26 73.2917 245.102 72.9858 245.714 72.5269C246.402 72.1444 246.937 71.2266 247.473 69.9263C248.008 68.5496 248.238 67.7082 248.161 67.4023L233.17 24.9521H245.025L253.898 54.9349L262.311 24.9521H273.631L259.634 64.9547C256.957 72.6799 254.816 77.4985 253.286 79.3342C251.68 81.1699 248.544 82.0877 243.878 82.0877H241.583C241.048 82.0877 240.207 82.0112 238.983 81.9348V73.4447L240.36 73.5212Z" fill="white"/>
</svg>
