<svg width="60" height="60" viewBox="0 0 60 60" fill="none" xmlns="http://www.w3.org/2000/svg">
<g clip-path="url(#clip0_9_11115)">
<rect width="60" height="60" rx="30" fill="white"/>
<path d="M29.5925 -0.952637C12.4978 -0.952637 -1.35986 13.1182 -1.35986 30.4759C-1.35986 47.8337 12.4978 61.9045 29.5925 61.9045C46.6873 61.9045 60.5449 47.8337 60.5449 30.4759C60.5449 13.1182 46.6873 -0.952637 29.5925 -0.952637ZM41.4963 34.506C41.4963 34.506 44.2336 37.2494 44.9075 38.523C44.9268 38.5491 44.9365 38.5753 44.943 38.5884C45.217 39.0566 45.2815 39.42 45.1461 39.6917C44.9204 40.1435 44.1466 40.3661 43.8822 40.3858H39.0459C38.7106 40.3858 38.0077 40.2974 37.1565 39.7015C36.502 39.2366 35.8571 38.4739 35.2284 37.7307C34.2902 36.6241 33.4777 35.6682 32.6587 35.6682C32.5547 35.668 32.4513 35.6846 32.3524 35.7173C31.7334 35.9203 30.9402 36.8173 30.9402 39.2072C30.9402 39.9536 30.3599 40.3825 29.9504 40.3825H27.7354C26.9809 40.3825 23.0506 40.114 19.5685 36.3852C15.3061 31.8182 11.4693 22.6581 11.437 22.573C11.1952 21.9804 11.6949 21.6628 12.2398 21.6628H17.1245C17.7758 21.6628 17.9886 22.0655 18.1369 22.4224C18.311 22.8381 18.9494 24.4914 19.9973 26.3509C21.6964 29.3825 22.7379 30.6134 23.5729 30.6134C23.7295 30.6116 23.8833 30.5711 24.0211 30.4956C25.1109 29.8801 24.9077 25.9352 24.8594 25.1167C24.8594 24.9628 24.8562 23.3521 24.2984 22.5795C23.8986 22.0197 23.2183 21.8069 22.8056 21.7283C22.9726 21.4943 23.1927 21.3045 23.4472 21.175C24.1952 20.7953 25.5429 20.7396 26.881 20.7396H27.6258C29.0766 20.7593 29.4507 20.8542 29.9762 20.9884C31.0402 21.2471 31.0628 21.9444 30.9692 24.331C30.9402 25.0087 30.9112 25.7747 30.9112 26.6783C30.9112 26.8747 30.9015 27.0843 30.9015 27.3069C30.8693 28.5215 30.8306 29.8997 31.6754 30.4661C31.7855 30.5363 31.9129 30.5737 32.0429 30.5741C32.3363 30.5741 33.2197 30.5742 35.6121 26.4066C36.3499 25.0652 36.9911 23.6712 37.5305 22.2358C37.5789 22.1506 37.7207 21.8887 37.8884 21.7872C38.0121 21.7232 38.1493 21.6906 38.2882 21.6923H44.0305C44.656 21.6923 45.0848 21.7872 45.1654 22.0328C45.3073 22.4224 45.1396 23.6108 42.5184 27.2152L41.348 28.7834C38.9717 31.9459 38.9717 32.1063 41.4963 34.506Z" fill="#0679FE"/>
</g>
<defs>
<clipPath id="clip0_9_11115">
<rect width="60" height="60" rx="30" fill="white"/>
</clipPath>
</defs>
</svg>
