<svg width="284" height="61" viewBox="0 0 284 61" fill="none" xmlns="http://www.w3.org/2000/svg">
<path d="M0 1.81681L16.3363 1.73047C20.9023 15.4271 26.7177 28.7671 30.9623 42.5505C36.7187 29.0671 41.7417 15.2605 47.4677 1.75413L61.151 1.77913C66.737 14.6405 72.2277 30.0238 76.3917 43.3972C79.116 38.5805 81.51 33.5271 84.039 28.5971C88.6213 19.6238 93.2823 10.6875 98.0213 1.79415L112.002 1.73647C122.457 20.5305 133.012 39.2705 143.665 57.9538C142.585 59.0138 129.035 58.4738 126.575 58.4671C122.42 51.6871 118.882 44.3638 115.107 37.3572C111.601 30.8472 107.74 24.4571 104.488 17.8238C100.352 25.4938 96.4267 33.2971 92.4427 41.0471C89.4807 46.8138 86.3533 52.5538 83.6777 58.4538H67.5987C65.076 48.8138 61.2787 39.2038 57.9613 29.7971C56.5063 25.6738 54.944 21.6038 53.9317 17.3405C48.1457 30.8938 43.548 44.9371 37.7163 58.4738L22.1273 58.4638C18.8677 51.3471 16.3537 43.6705 13.535 36.3572L0 1.81681Z" fill="white"/>
<path d="M232.222 1.72705C249.125 2.06672 266.098 1.73606 283.008 1.71606L282.948 11.5771C271.175 11.8367 259.368 11.6734 247.588 11.6894L247.645 24.7071C258.515 24.4837 269.402 24.6937 280.275 24.5904V34.5237C272.545 34.6237 264.812 34.6271 257.078 34.5404L247.635 34.5504L247.645 48.7704L283.612 48.7604L283.635 58.4804C266.515 58.2337 249.355 58.4437 232.232 58.4204L232.222 1.72705Z" fill="white"/>
<path d="M184.839 0.258137C189.816 -0.256529 194.842 -0.000521104 199.742 1.01648C209.776 3.19515 216.549 8.29513 222.066 16.7871C217.526 17.9205 213.042 19.6638 208.602 21.1438C207.739 19.5205 206.749 17.9671 205.499 16.6105C201.769 12.5625 196.709 10.7788 191.299 10.6901C185.376 10.5931 179.646 11.7775 175.319 16.1638C171.492 20.0438 169.792 25.5238 169.819 30.8871C169.842 35.9938 171.499 41.1172 175.242 44.7338C179.276 48.6272 184.996 50.0338 190.469 49.8972C196.606 49.7438 201.702 48.0805 206.002 43.5605C207.116 41.9872 208.029 40.1972 208.992 38.5205C213.306 40.3072 217.722 41.8338 222.119 43.4038C221.346 45.0071 220.426 46.5338 219.369 47.9671C214.246 54.8938 206.519 58.4538 198.149 59.6905C186.866 61.3605 173.716 59.8172 164.406 52.7638C158.116 48.0005 154.192 40.8405 153.162 33.0338C152.229 25.9405 154.262 19.0005 158.612 13.3538C164.979 5.0958 174.812 1.5308 184.839 0.258137Z" fill="white"/>
<circle cx="142" cy="30" r="8" fill="#386FDE"/>
</svg>
