<svg width="14" height="14" viewBox="0 0 14 14" fill="none" xmlns="http://www.w3.org/2000/svg">
<path d="M12.5685 4.6314C12.4044 4.46736 12.1819 4.37521 11.9499 4.37521C11.7179 4.37521 11.4954 4.46736 11.3313 4.6314L7.00002 8.96264L2.66877 4.63139C2.50374 4.47201 2.28272 4.38381 2.05329 4.3858C1.82387 4.3878 1.60441 4.47982 1.44218 4.64205C1.27994 4.80429 1.18792 5.02375 1.18593 5.25317C1.18394 5.48259 1.27213 5.70362 1.43152 5.86864L6.38139 10.8185C6.54548 10.9826 6.768 11.0747 7.00002 11.0747C7.23204 11.0747 7.45456 10.9826 7.61864 10.8185L12.5685 5.86864C12.7326 5.70456 12.8247 5.48204 12.8247 5.25002C12.8247 5.018 12.7326 4.79548 12.5685 4.6314Z" fill="white"/>
</svg>
