<svg width="11" height="10" viewBox="0 0 11 10" fill="none" xmlns="http://www.w3.org/2000/svg">
<path d="M9.76401 1.51623C9.84761 1.43555 9.91431 1.33904 9.96021 1.23232C10.0061 1.12559 10.0303 1.01079 10.0314 0.89462C10.0324 0.778447 10.0104 0.663225 9.96641 0.555678C9.92247 0.44813 9.85755 0.350411 9.77544 0.268222C9.69333 0.186033 9.59567 0.12102 9.48816 0.0769764C9.38066 0.0329328 9.26546 0.0107411 9.14928 0.0116955C9.03311 0.0126499 8.91829 0.0367314 8.81152 0.0825352C8.70475 0.128339 8.60817 0.194948 8.52742 0.278475L5.02066 3.78407L1.51506 0.278475C1.43496 0.192512 1.33836 0.123564 1.23104 0.0757437C1.12371 0.0279229 1.00786 0.00220894 0.890376 0.000136164C0.772898 -0.00193661 0.656205 0.0196743 0.547259 0.0636792C0.438314 0.107684 0.339348 0.173182 0.256265 0.256265C0.173182 0.339348 0.107684 0.438313 0.0636792 0.547259C0.0196743 0.656204 -0.00193661 0.772898 0.000136164 0.890377C0.00220894 1.00786 0.0279229 1.12371 0.0757437 1.23104C0.123564 1.33836 0.192512 1.43496 0.278475 1.51506L3.78174 5.02182L0.276142 8.52742C0.121592 8.69328 0.0374535 8.91266 0.0414528 9.13933C0.0454521 9.366 0.137277 9.58226 0.297581 9.74257C0.457886 9.90287 0.674154 9.9947 0.900823 9.9987C1.12749 10.0027 1.34687 9.91856 1.51273 9.76401L5.02066 6.25841L8.52626 9.76517C8.69212 9.91972 8.91149 10.0039 9.13816 9.99986C9.36483 9.99586 9.5811 9.90404 9.7414 9.74374C9.9017 9.58343 9.99353 9.36716 9.99753 9.14049C10.0015 8.91382 9.91739 8.69445 9.76284 8.52859L6.25958 5.02182L9.76401 1.51623Z" fill="white"/>
</svg>
